Coordinates
version=1
nRows=29
nColumns=24
inDegrees=yes

Units are S.I. units (second, meters, Newtons, ...)
Angles are in degrees.

endheader
time	pelvis_tilt	pelvis_list	pelvis_rotation	pelvis_tx	pelvis_ty	pelvis_tz	hip_flexion_r	hip_adduction_r	hip_rotation_r	knee_angle_r	ankle_angle_r	subtalar_angle_r	mtp_angle_r	hip_flexion_l	hip_adduction_l	hip_rotation_l	knee_angle_l	ankle_angle_l	subtalar_angle_l	mtp_angle_l	lumbar_extension	lumbar_bending	lumbar_rotation
      0.84133333	     -1.55165375	     -3.74574605	     -1.78453814	     -0.40366050	      0.99665906	      0.31969056	     14.09746439	      7.07450250	      0.58448859	    -21.57611563	     11.34436771	    -10.98626336	     -1.15229150	     14.43188973	     -4.53471881	     -3.52022870	    -71.14525626	     -9.33651156	    -13.20228439	      3.89931047	    -11.11575792	     12.16615599	     -0.52845621
      0.84550000	     -1.47459933	     -3.64518455	     -1.76842894	     -0.39867849	      0.99786971	      0.32018084	     13.43796611	      6.99999090	      0.69445014	    -21.03422077	     11.35293764	    -11.06285071	     -1.13888628	     14.97062027	     -4.49695009	     -3.63406712	    -71.08716163	     -8.70547582	    -13.28552645	      3.74438349	    -11.22997582	     11.95541287	     -0.20002307
      0.84966667	     -1.46109064	     -3.50511710	     -1.75920772	     -0.39373145	      0.99892753	      0.32059712	     12.88671942	      6.86956694	      0.74441403	    -20.57293829	     11.39761218	    -11.04119043	     -1.13369320	     15.57284512	     -4.39644154	     -3.74491474	    -70.97499202	     -8.11656931	    -13.50784097	      3.70025385	    -11.24450646	     11.75754151	     -0.10035777
      0.85383333	     -1.36138970	     -3.40302265	     -1.76213071	     -0.38879694	      1.00009026	      0.32111070	     12.20484661	      6.79643554	      0.87730404	    -20.02859049	     11.38209125	    -11.12546143	     -1.11918408	     16.06816270	     -4.35693135	     -3.87050985	    -70.81753517	     -7.45692832	    -13.49727908	      3.53996949	    -11.42764548	     11.51716428	      0.30164242
      0.85800000	     -1.31003222	     -3.26275466	     -1.77281260	     -0.38384922	      1.00116769	      0.32157696	     11.58976399	      6.67496646	      0.98340097	    -19.51692228	     11.38198571	    -11.16787114	     -1.10106598	     16.59898199	     -4.26085129	     -3.99742684	    -70.58801553	     -6.84770989	    -13.57260640	      3.35735288	    -11.52238961	     11.27390360	      0.57717986
      0.86216667	     -1.23317115	     -3.11599874	     -1.78301700	     -0.37889533	      1.00225335	      0.32202714	     10.94671746	      6.53975227	      1.06653854	    -19.00421651	     11.39914132	    -11.16628204	     -1.08492342	     17.08664900	     -4.15446527	     -4.12586901	    -70.29626750	     -6.25060193	    -13.62347453	      3.20361603	    -11.63780339	     11.02685380	      0.80215514
      0.86633333	     -1.15565371	     -2.96443366	     -1.80124725	     -0.37392785	      1.00333132	      0.32247711	     10.29556630	      6.39919789	      1.16147487	    -18.47634609	     11.40616893	    -11.17301719	     -1.06838097	     17.55516068	     -4.03990949	     -4.25615682	    -69.94089654	     -5.66078924	    -13.64013399	      3.03746584	    -11.75678624	     10.77674409	      1.05676896
      0.87050000	     -1.06842588	     -2.79530726	     -1.81772048	     -0.36897133	      1.00437616	      0.32290181	      9.64313185	      6.23290554	      1.23068018	    -17.96544045	     11.42732754	    -11.14439060	     -1.05525447	     18.00015216	     -3.89995958	     -4.38515468	    -69.52756412	     -5.08509458	    -13.63689016	      2.91097841	    -11.88139761	     10.50518434	      1.26226853
      0.87466667	     -1.00666774	     -2.62687422	     -1.84089277	     -0.36400264	      1.00534419	      0.32333134	      9.01741836	      6.06820936	      1.30768022	    -17.45541511	     11.45207622	    -11.11495133	     -1.04193626	     18.45899162	     -3.75936206	     -4.51072785	    -69.06602795	     -4.50623815	    -13.58402386	      2.77850281	    -11.97822855	     10.23719837	      1.50653617
      0.87883333	     -0.93619038	     -2.46657312	     -1.86277801	     -0.35904085	      1.00627804	      0.32374790	      8.38151546	      5.90825907	      1.37274584	    -16.94148925	     11.47475961	    -11.07916637	     -1.02934453	     18.89603996	     -3.62536604	     -4.63101245	    -68.55479902	     -3.93082163	    -13.49888204	      2.64814939	    -12.08526250	      9.98201335	      1.73449864
      0.88300000	     -0.86997412	     -2.29444871	     -1.88369648	     -0.35408225	      1.00716843	      0.32414556	      7.75603097	      5.73143591	      1.42066515	    -16.43700230	     11.50411357	    -11.02478699	     -1.01840330	     19.32239978	     -3.47252721	     -4.74578681	    -67.98566551	     -3.37475766	    -13.38914768	      2.53221526	    -12.18406954	      9.71474940	      1.94083464
      0.88716667	     -0.81311721	     -2.09948772	     -1.90835623	     -0.34913277	      1.00802215	      0.32450386	      7.15240973	      5.52320928	      1.45125506	    -15.95278730	     11.49716561	    -10.94111242	     -1.01218539	     19.74032637	     -3.28096297	     -4.84975184	    -67.35096382	     -2.82834904	    -13.27956848	      2.46072601	    -12.27564185	      9.44701374	      2.09255067
      0.89133333	     -0.71994484	     -1.95788146	     -1.93272351	     -0.34416352	      1.00885016	      0.32490080	      6.48875741	      5.37570785	      1.49634322	    -15.42936284	     11.55070937	    -10.85723105	     -0.99789404	     20.10892144	     -3.16345377	     -4.96115902	    -66.69161592	     -2.26526102	    -13.09473784	      2.30406510	    -12.41340179	      9.19889815	      2.37065828
      0.89550000	     -0.65877815	     -1.77957326	     -1.94396433	     -0.33920195	      1.00960328	      0.32525137	      5.87704058	      5.18254049	      1.50130058	    -14.93988493	     11.60609444	    -10.77982465	     -0.98901259	     20.49626476	     -2.98898848	     -5.04633209	    -65.96370428	     -1.74873971	    -12.86097562	      2.21238447	    -12.49522990	      8.93183768	      2.52227391
      0.89966667	     -0.60384349	     -1.62716303	     -1.96125419	     -0.33426409	      1.01027451	      0.32559447	      5.27431966	      5.01576538	      1.51280706	    -14.45038263	     11.63533613	    -10.67000396	     -0.97945063	     20.88132419	     -2.84094651	     -5.12356043	    -65.20473084	     -1.21599764	    -12.62748496	      2.10936733	    -12.59493523	      8.69618098	      2.70865908
      0.90383333	     -0.56402757	     -1.45120621	     -1.97320275	     -0.32930744	      1.01089119	      0.32590596	      4.70005439	      4.81912556	      1.48849821	    -13.98801781	     11.69571527	    -10.55906841	     -0.97203843	     21.26132031	     -2.65974996	     -5.19437317	    -64.37900622	     -0.72875502	    -12.36357644	      2.03552898	    -12.65140394	      8.44159863	      2.85405945
      0.90800000	     -0.51716022	     -1.29480012	     -1.98407226	     -0.32435726	      1.01145893	      0.32620723	      4.11611560	      4.64207325	      1.46400805	    -13.51937657	     11.74733560	    -10.42986364	     -0.96500749	     21.62110643	     -2.49478536	     -5.25058364	    -63.51318562	     -0.24620441	    -12.08130134	      1.97214956	    -12.72723043	      8.21115938	      3.00123236
      0.91216667	     -0.45442360	     -1.14082787	     -1.99265691	     -0.31940586	      1.01201090	      0.32648772	      3.51439177	      4.46464764	      1.43395249	    -13.04777918	     11.79823193	    -10.29488125	     -0.95777503	     21.94449940	     -2.32597266	     -5.29614864	    -62.59227808	      0.21807458	    -11.78147941	      1.91266099	    -12.82629196	      7.98489091	      3.14613701
      0.91633333	     -0.40291910	     -0.99413882	     -2.00128302	     -0.31446082	      1.01248241	      0.32675842	      2.93081093	      4.29414023	      1.39884613	    -12.58784543	     11.85217780	    -10.14709546	     -0.95002775	     22.26646822	     -2.16015793	     -5.32861091	    -61.62925062	      0.65958854	    -11.46838096	      1.85503184	    -12.91626509	      7.76991199	      3.28444746
      0.92050000	     -0.39523224	     -0.84159913	     -2.00661260	     -0.30951619	      1.01285590	      0.32698675	      2.40658625	      4.11513498	      1.34685931	    -12.14948593	     11.86668260	    -10.01671563	     -0.94601100	     22.61798775	     -1.97673047	     -5.34203552	    -60.60927418	      1.05201765	    -11.17111282	      1.82816358	    -12.93971621	      7.56199114	      3.37575552
      0.92466667	     -0.33537000	     -0.73301862	     -2.00822661	     -0.30456382	      1.01320574	      0.32724374	      1.80903540	      3.98577416	      1.30961830	    -11.68257007	     11.96311702	     -9.86400528	     -0.93764220	     22.90330000	     -1.84918918	     -5.35311863	    -59.57079592	      1.46485920	    -10.81497095	      1.78667125	    -13.04720616	      7.38589442	      3.52043148
      0.92883333	     -0.29971026	     -0.60406503	     -2.01007389	     -0.29960372	      1.01350570	      0.32746214	      1.24815951	      3.83140351	      1.25532634	    -11.23301892	     12.01525690	     -9.73026363	     -0.93111012	     23.18978626	     -1.68833961	     -5.35308755	    -58.46156066	      1.81407199	    -10.48521043	      1.75419306	    -13.11143373	      7.19860138	      3.63078538
      0.93300000	     -0.28248202	     -0.48542312	     -2.01327463	     -0.29464725	      1.01372263	      0.32766114	      0.71188291	      3.68770535	      1.21102429	    -10.79296440	     12.03056694	     -9.59716410	     -0.92712852	     23.47944107	     -1.52774871	     -5.32537645	    -57.30688462	      2.12344557	    -10.17345827	      1.73752147	    -13.15224609	      7.03321904	      3.71594863
      0.93716667	     -0.20913376	     -0.38710164	     -2.01334298	     -0.28967075	      1.01395103	      0.32787402	      0.09779206	      3.56632297	      1.17122894	    -10.32051902	     12.11818131	     -9.45901513	     -0.91959084	     23.69095961	     -1.39597251	     -5.30875301	    -56.11482126	      2.42006814	     -9.84501902	      1.71439603	    -13.27593652	      6.87561928	      3.83503851
      0.94133333	     -0.18605333	     -0.28173560	     -2.01551944	     -0.28469259	      1.01405820	      0.32805518	     -0.44747713	      3.43647023	      1.12664378	     -9.87827375	     12.17416097	     -9.33413014	     -0.91306128	     23.93695330	     -1.24592237	     -5.26929940	    -54.86839981	      2.65956600	     -9.54818084	      1.69626845	    -13.33107320	      6.72197761	      3.93235208
      0.94550000	     -0.18699942	     -0.19314689	     -2.01705090	     -0.27971313	      1.01408238	      0.32822638	     -0.96432238	      3.32585223	      1.08202848	     -9.43979657	     12.18215994	     -9.21367516	     -0.90989620	     24.19266002	     -1.10933971	     -5.21091933	    -53.58030312	      2.85401032	     -9.26368091	      1.68968990	    -13.35557751	      6.58763282	      4.00487338
      0.94966667	     -0.12641755	     -0.11306567	     -2.02262058	     -0.27470944	      1.01413196	      0.32840183	     -1.56161224	      3.22212575	      1.04828601	     -8.97651926	     12.27137426	     -9.08986168	     -0.90258518	     24.35730431	     -0.98305053	     -5.15693901	    -52.24287128	      3.01935784	     -8.99987438	      1.67940449	    -13.46263802	      6.46318929	      4.11718212
      0.95383333	     -0.12677829	     -0.03841838	     -2.03134971	     -0.26970440	      1.01405450	      0.32856057	     -2.07681372	      3.12525847	      1.00797293	     -8.54640496	     12.28581417	     -8.97559826	     -0.89898176	     24.56791933	     -0.85682343	     -5.08001944	    -50.85628062	      3.12745413	     -8.75062218	      1.67586024	    -13.48165913	      6.34641655	      4.19475491
      0.95800000	     -0.05998856	      0.01329893	     -2.03511963	     -0.26468164	      1.01398663	      0.32871671	     -2.68656058	      3.05209061	      0.97739580	     -8.07470695	     12.36586629	     -8.86019747	     -0.89192658	     24.69062064	     -0.75471265	     -5.00064036	    -49.43918599	      3.20645139	     -8.53883965	      1.67243258	    -13.60539194	      6.25570014	      4.30447022
